<?xml version="1.0" encoding="UTF-8"?>
<svg width="30px" height="30px" viewBox="0 0 30 30" version="1.1" xmlns="http://www.w3.org/2000/svg" xmlns:xlink="http://www.w3.org/1999/xlink">
    <title>Icon/Social/Facebook</title>
    <g id="Page-1" stroke="none" stroke-width="1" fill="none" fill-rule="evenodd">
        <g id="Artboard-Copy-2" transform="translate(-556.000000, -471.000000)">
            <g id="Group-14" transform="translate(222.000000, 466.000000)">
                <g id="Group-13" transform="translate(279.000000, 5.000000)">
                    <g id="Group" transform="translate(55.000000, 0.000000)">
                        <rect id="Rectangle-Copy" fill="#1877F2" x="0" y="0" width="30" height="30" rx="7"></rect>
                        <path d="M19.2889588,30 L19.2889588,19.0523266 L22.8269297,19.0523266 L23.3566155,14.785884 L19.2889588,14.785884 L19.2889588,12.0618879 C19.2889588,10.826679 19.6192453,9.98481776 21.3247957,9.98481776 L23.5,9.9837747 L23.5,6.16793185 C23.1236296,6.11612679 21.8324996,6 20.3303655,6 C17.194206,6 15.0471207,7.98817871 15.0471207,11.6395666 L15.0471207,14.7859999 L11.5,14.7859999 L11.5,19.0524425 L15.0470091,19.0524425 L15.0470091,30 L19.2889588,30 Z" id="Path" fill="#FFFFFF" fill-rule="nonzero"></path>
                    </g>
                </g>
            </g>
        </g>
    </g>
</svg>