<?xml version="1.0" encoding="UTF-8"?>
<svg width="30px" height="30px" viewBox="0 0 30 30" version="1.1" xmlns="http://www.w3.org/2000/svg" xmlns:xlink="http://www.w3.org/1999/xlink">
    <title>Icon/Social/Twitter</title>
    <g id="Page-1" stroke="none" stroke-width="1" fill="none" fill-rule="evenodd">
        <g id="Artboard-Copy-2" transform="translate(-501.000000, -471.000000)">
            <g id="Group-14" transform="translate(222.000000, 466.000000)">
                <g id="Group" transform="translate(279.000000, 5.000000)">
                    <rect id="Rectangle" fill="#3AAAE1" x="0" y="0" width="30" height="30" rx="7"></rect>
                    <path d="M25,9.77561756 C24.30099,10.076845 23.549635,10.2803396 22.76123,10.3718891 C23.565975,9.90325161 24.18414,9.16116529 24.475125,8.27686344 C23.72187,8.71089304 22.887675,9.02596364 21.99971,9.19577322 C21.28873,8.45977789 20.27565,8 19.15446,8 C17.00176,8 15.256325,9.69541945 15.256325,11.7866613 C15.256325,12.0834589 15.29081,12.3725044 15.357215,12.6496447 C12.117525,12.4917402 9.245295,10.9841265 7.322685,8.69308149 C6.987145,9.25234565 6.794865,9.90279017 6.794865,10.5967945 C6.794865,11.9106039 7.483045,13.0696465 8.528995,13.7487003 C7.890025,13.729043 7.28896,13.5586797 6.76342,13.2750792 C6.76304,13.2908604 6.76304,13.3067339 6.76304,13.3226997 C6.76304,15.1573815 8.10672,16.6878826 9.889965,17.0358077 C9.56288,17.1223736 9.218505,17.1686098 8.863015,17.1686098 C8.611835,17.1686098 8.367685,17.1447996 8.129615,17.100686 C8.625705,18.6050697 10.06524,19.6999723 11.77106,19.7304273 C10.436975,20.746147 8.756235,21.3514628 6.92986,21.3514628 C6.61522,21.3514628 6.30495,21.3335589 6,21.2984896 C7.725105,22.3729966 9.774065,23 11.975405,23 C19.14534,23 23.066275,17.2297967 23.066275,12.2256745 C23.066275,12.0614944 23.062475,11.8982373 23.05497,11.7357185 C23.816585,11.2019257 24.477405,10.5349617 25,9.77561756 Z" id="Path" fill="#FFFFFF" fill-rule="nonzero"></path>
                </g>
            </g>
        </g>
    </g>
</svg>